HIERARCHY
ROOT Hips
{
  OFFSET -187.679 86.5976 -156.378
  CHANNELS 6 Xposition Yposition Zposition Zrotation Xrotation Yrotation
  JOINT LeftUpLeg
  {
    OFFSET 8.64259 1.95398 -2.38835
    CHANNELS 3 Zrotation Xrotation Yrotation
    JOINT LeftLeg
    {
      OFFSET 43.7702 0 0
      CHANNELS 3 Zrotation Xrotation Yrotation
      JOINT LeftFoot
      {
        OFFSET 40.6238 0 0
        CHANNELS 3 Zrotation Xrotation Yrotation
        JOINT LeftToeBase
        {
          OFFSET 12.7242 0 0
          CHANNELS 3 Zrotation Xrotation Yrotation
          End Site
          {
            OFFSET 0 0 0
          }
        }
      }
    }
  }
  JOINT RightUpLeg
  {
    OFFSET -8.2249 1.95398 -2.59336
    CHANNELS 3 Zrotation Xrotation Yrotation
    JOINT RightLeg
    {
      OFFSET 43.5653 0 0
      CHANNELS 3 Zrotation Xrotation Yrotation
      JOINT RightFoot
      {
        OFFSET 40.6238 0 0
        CHANNELS 3 Zrotation Xrotation Yrotation
        JOINT RightToeBase
        {
          OFFSET 12.7242 0 0
          CHANNELS 3 Zrotation Xrotation Yrotation
          End Site
          {
            OFFSET 0 0 0
          }
        }
      }
    }
  }
  JOINT Spine
  {
    OFFSET 0.165834 0.87714 6.61349
    CHANNELS 3 Zrotation Xrotation Yrotation
    JOINT Spine1
    {
      OFFSET 7.38963 1.71661e-005 0
      CHANNELS 3 Zrotation Xrotation Yrotation
      JOINT Spine2
      {
        OFFSET 11.9445 1.14441e-005 0
        CHANNELS 3 Zrotation Xrotation Yrotation
        JOINT Spine3
        {
          OFFSET 14.7254 4.19617e-005 0
          CHANNELS 3 Zrotation Xrotation Yrotation
          JOINT Spine4
          {
            OFFSET 10.9679 0 0
            CHANNELS 3 Zrotation Xrotation Yrotation
            JOINT RightShoulder
            {
              OFFSET 2.46616 -1.6653 3.69651
              CHANNELS 3 Zrotation Xrotation Yrotation
              JOINT RightArm
              {
                OFFSET 13.0012 0 0
                CHANNELS 3 Zrotation Xrotation Yrotation
                JOINT RightForeArm
                {
                  OFFSET 28.7848 1.52588e-005 0
                  CHANNELS 3 Zrotation Xrotation Yrotation
                  JOINT RightHand
                  {
                    OFFSET 26.5688 1.52588e-005 0
                    CHANNELS 3 Zrotation Xrotation Yrotation
                    End Site
                    {
                      OFFSET 0 0 0
                    }
                  }
                }
              }
            }
            JOINT LeftShoulder
            {
              OFFSET 2.38034 -1.29275 -3.7523
              CHANNELS 3 Zrotation Xrotation Yrotation
              JOINT LeftArm
              {
                OFFSET 16.3182 6.10352e-005 0
                CHANNELS 3 Zrotation Xrotation Yrotation
                JOINT LeftForeArm
                {
                  OFFSET 27.0901 0 0
                  CHANNELS 3 Zrotation Xrotation Yrotation
                  JOINT LeftHand
                  {
                    OFFSET 24.5451 1.52588e-005 0
                    CHANNELS 3 Zrotation Xrotation Yrotation
                    End Site
                    {
                      OFFSET 0 0 0
                    }
                  }
                }
              }
            }
            JOINT Neck
            {
              OFFSET 5.0226 -0.0266342 0
              CHANNELS 3 Zrotation Xrotation Yrotation
              JOINT Head
              {
                OFFSET 6.69363 2.86102e-005 0
                CHANNELS 3 Zrotation Xrotation Yrotation
                End Site
                {
                  OFFSET 0 0 0
                }
              }
            }
          }
        }
      }
    }
  }
}
MOTION
Frames:	9
Frame Time:	0.0416667
29.1881 44.0919 9.59769 -75.355 -83.1514 -74.9642 52.0247 77.9091 -101.187 -139.196 22.7132 8.99655 86.6167 14.813 2.3712 24.5193 -2.74181 2.92876 30.7194 75.8236 -150.452 -139.984 -0.0111995 -6.84545 90.3943 -11.8889 -3.81127 29.9154 -0.362811 1.94832 0.821975 13.3015 -89.956 0.268322 1.65557 0.160426 -11.4016 1.66103 0.0873878 -33.9442 1.5308 0.650702 -13.9315 1.5308 0.650686 84.5444 -41.0183 -112.126 -15.3033 -16.9011 -77.2762 -5.37716 -43.1233 -6.88314 -26.412 -4.52896 14.5776 -94.0376 -32.9844 67.2171 18.0112 16.6545 -78.2574 5.91293 23.5391 -4.87024 8.15101 1.7277 15.325 45.3599 -2.13874 -2.13863 11.0117 -0.722135 1.08207 
28.9417 44.1578 9.43522 -72.2397 -82.2295 -70.9583 54.9386 76.3407 -103.163 -139.171 23.2269 8.91465 86.1685 14.3508 1.93041 24.9657 -3.00558 4.15082 35.1851 74.3874 -153.742 -139.577 0.693206 -6.94622 90.4599 -11.7538 -3.67642 29.6982 -0.354743 1.78558 0.959685 13.2338 -90.011 0.403953 1.91003 0.0616881 -11.2656 1.91089 -0.0224729 -33.8111 1.80315 0.633073 -13.7985 1.80315 0.633061 84.6465 -40.7281 -112.072 -15.7802 -16.929 -77.5193 -4.87353 -42.6111 -6.31781 -25.9793 -4.51052 14.8279 -93.9931 -32.9447 67.2802 17.7006 16.4839 -78.3246 6.05676 24.3088 -5.04685 7.65008 1.57478 14.5706 45.1695 -1.90492 -1.415 11.631 -1.0061 0.127883 
29.0179 44.1585 9.42626 -71.6972 -82.1932 -70.3613 54.4927 76.3383 -102.752 -139.065 23.045 8.90168 86.5484 14.6138 2.05954 24.4429 -3.03683 3.5847 34.6863 74.3638 -153.284 -139.554 0.502429 -6.94735 90.2485 -11.6686 -3.61746 29.7927 -0.362409 1.87109 0.964669 13.245 -90.0189 0.381745 1.91699 0.0470554 -11.2878 1.91721 -0.0373907 -33.8334 1.81419 0.621198 -13.8208 1.81419 0.621208 84.7926 -40.6631 -111.853 -14.9975 -16.7594 -77.3879 -5.63872 -42.5839 -6.82445 -25.4994 -4.35173 14.5159 -93.985 -32.9132 67.2819 17.3023 16.0497 -78.3009 6.21798 25.2023 -5.31715 8.86085 1.71929 13.9433 45.4279 -1.95748 -1.7135 11.2501 -0.821521 0.713924 
29.0257 44.1515 9.42837 -72.2315 -82.1508 -70.9564 54.1332 76.3637 -102.328 -139.13 23.0306 8.89781 85.5963 14.2828 2.6437 23.464 -1.64461 -1.10914 34.5783 74.4594 -153.103 -139.583 0.472042 -6.94105 90.3172 -11.7114 -3.67531 29.6073 -0.367904 1.77765 0.949864 13.2587 -90.0164 0.35429 1.88835 0.0513262 -11.3153 1.88877 -0.031878 -33.8606 1.78559 0.616659 -13.8479 1.78559 0.616649 84.7845 -40.6321 -111.879 -15.8282 -16.7624 -77.8059 -4.96247 -42.8026 -6.49012 -26.3786 -4.58987 14.8645 -94.0215 -33.1849 67.3278 17.8432 16.0958 -78.3872 6.10444 24.6029 -5.1986 8.03483 1.57872 13.9497 45.5611 -1.81031 -1.63325 10.9585 -0.731436 0.672436 
28.9922 44.0271 9.45107 -72.0211 -82.2175 -70.8512 53.9656 76.403 -102.165 -139.182 23.0567 8.92286 86.7494 14.7747 2.14522 23.5694 -3.12865 2.87802 33.7355 74.4252 -152.175 -139.758 0.722374 -6.91538 90.2964 -11.6681 -3.65984 29.8567 -0.327178 1.78309 0.9527 13.2416 -90.0126 0.388429 1.89551 0.0583394 -11.2811 1.89624 -0.025189 -33.8265 1.79031 0.625487 -13.8138 1.79031 0.625498 85.0454 -40.4944 -111.497 -14.5444 -16.7758 -77.6067 -5.49268 -43.7095 -6.84936 -26.4359 -4.61218 14.9125 -94.0028 -33.0993 67.3262 18.1026 16.3543 -78.4794 6.07494 24.5096 -5.18687 7.38786 1.51806 14.4433 45.1937 -1.88 -1.41896 11.326 -0.956663 0.319305 
28.9531 43.9177 9.49643 -72.1302 -82.2974 -71.0597 54.1609 76.3245 -102.407 -139.351 23.0895 8.92563 86.4344 14.5218 2.04953 23.9384 -2.95374 2.84277 33.2487 74.4522 -151.741 -139.948 0.808977 -6.89845 90.3721 -11.6817 -3.64688 29.7943 -0.335459 1.77493 0.94001 13.2123 -90.004 0.447089 1.87353 0.0726938 -11.2225 1.87491 -0.00987771 -33.7676 1.76503 0.632575 -13.7549 1.76504 0.632588 84.8932 -40.7174 -111.664 -15.3108 -17.0987 -77.5481 -5.2582 -43.055 -6.71608 -26.2645 -4.55907 14.8168 -93.964 -33.1682 67.4234 18.3143 16.7022 -78.5062 6.15817 24.2982 -5.16683 7.51145 1.55944 14.6793 45.174 -1.95942 -1.63278 11.0324 -0.881748 0.624404 
29.0279 43.853 9.55314 -72.3334 -82.4015 -71.3231 53.8735 76.3927 -102.174 -139.397 23.2211 8.93995 86.9976 14.7559 1.79317 24.7868 -3.85807 6.18724 32.4082 74.6287 -151.089 -140.072 0.543557 -6.90478 90.3629 -11.6865 -3.70099 29.9103 -0.302993 1.72876 0.926822 13.2191 -90.0211 0.4338 1.84074 0.0382636 -11.2359 1.84065 -0.0428095 -33.7807 1.74411 0.589885 -13.768 1.74412 0.589894 85.0931 -40.433 -111.441 -14.5142 -17.0689 -77.3375 -5.72223 -43.262 -7.03158 -25.7338 -4.39212 14.5186 -93.9848 -33.2824 67.4327 18.3253 16.596 -78.765 5.73199 24.1159 -4.88127 7.58089 1.58612 14.8308 45.1727 -1.93795 -1.2566 11.515 -1.1122 0.180288 
29.0073 43.8161 9.51387 -72.4817 -82.2147 -71.4419 53.7916 76.3588 -102.019 -139.41 23.2135 8.95722 87.0933 14.9243 2.02167 24.7565 -3.93549 6.36589 32.351 74.4627 -150.743 -140.048 0.636062 -6.90408 90.2431 -11.6473 -3.73558 29.887 -0.320917 1.77918 0.948461 13.2155 -90.0022 0.440553 1.89101 0.0769914 -11.229 1.89256 -0.00635204 -33.7743 1.78041 0.641935 -13.7616 1.78042 0.641927 85.0229 -40.5391 -111.517 -14.6238 -17.0899 -77.402 -5.72427 -43.4136 -7.05191 -26.2098 -4.54424 14.8011 -93.8674 -33.0907 67.564 18.1527 16.5437 -78.8343 5.77557 24.4031 -4.91627 7.64119 1.60971 14.9984 45.5611 -2.12516 -1.82339 10.9318 -0.889739 0.934689 
28.9809 43.9072 9.48864 -72.7356 -82.2 -71.5102 55.0118 76.0193 -103.151 -139.472 23.0923 8.87079 86.0208 14.1143 1.71557 25.5213 -2.88918 4.49818 34.0189 74.3394 -152.469 -139.905 0.86815 -6.93294 90.4703 -11.6857 -3.65084 29.8239 -0.38061 1.95615 0.953682 13.2145 -90.0209 0.442892 1.89441 0.0406178 -11.2267 1.89436 -0.0428444 -33.7721 1.79458 0.608269 -13.7594 1.7946 0.608269 84.9688 -40.4337 -111.649 -15.7 -17.1596 -77.8999 -4.54409 -42.839 -6.04977 -26.2896 -4.61009 15.0181 -93.9343 -33.164 67.4745 17.2445 16.4959 -78.217 6.43654 24.8855 -5.24924 7.8708 1.70598 15.616 45.2174 -1.89847 -1.37222 11.5196 -0.978838 0.456675 
